<mxfile host="app.diagrams.net" modified="2021-03-27T21:44:48.488Z" agent="5.0 (Windows NT 10.0; Win64; x64) AppleWebKit/537.36 (KHTML, like Gecko) Chrome/89.0.4389.72 Safari/537.36 Edg/89.0.774.45" etag="EphgZp6cAHPUgeYNCosc" version="14.4.7" type="github">
  <diagram id="prtHgNgQTEPvFCAcTncT" name="Page-1">
    <mxGraphModel dx="1422" dy="794" grid="1" gridSize="10" guides="1" tooltips="1" connect="1" arrows="1" fold="1" page="1" pageScale="1" pageWidth="827" pageHeight="1169" math="0" shadow="0">
      <root>
        <mxCell id="0" />
        <mxCell id="1" parent="0" />
        <mxCell id="nrWOXvKMizASNFN-f3t7-1" value="CLUELESS" style="swimlane;html=1;childLayout=stackLayout;resizeParent=1;resizeParentMax=0;horizontal=0;startSize=20;horizontalStack=0;" parent="1" vertex="1">
          <mxGeometry x="120" y="120" width="670" height="780" as="geometry" />
        </mxCell>
        <mxCell id="nrWOXvKMizASNFN-f3t7-2" value="Player" style="swimlane;html=1;startSize=20;horizontal=0;fillColor=#ffe6cc;strokeColor=#d79b00;" parent="nrWOXvKMizASNFN-f3t7-1" vertex="1">
          <mxGeometry x="20" width="650" height="160" as="geometry" />
        </mxCell>
        <mxCell id="nrWOXvKMizASNFN-f3t7-3" value="" style="edgeStyle=orthogonalEdgeStyle;rounded=0;orthogonalLoop=1;jettySize=auto;html=1;entryX=0;entryY=0.5;entryDx=0;entryDy=0;" parent="nrWOXvKMizASNFN-f3t7-2" source="nrWOXvKMizASNFN-f3t7-4" target="nrWOXvKMizASNFN-f3t7-6" edge="1">
          <mxGeometry relative="1" as="geometry">
            <mxPoint x="120" y="60" as="targetPoint" />
          </mxGeometry>
        </mxCell>
        <mxCell id="nrWOXvKMizASNFN-f3t7-4" value="" style="ellipse;whiteSpace=wrap;html=1;fillColor=#000000;" parent="nrWOXvKMizASNFN-f3t7-2" vertex="1">
          <mxGeometry x="30" y="10" width="40" height="40" as="geometry" />
        </mxCell>
        <mxCell id="nrWOXvKMizASNFN-f3t7-5" value="" style="ellipse;whiteSpace=wrap;html=1;" parent="nrWOXvKMizASNFN-f3t7-2" vertex="1">
          <mxGeometry x="600" y="20" width="40" height="40" as="geometry" />
        </mxCell>
        <mxCell id="nrWOXvKMizASNFN-f3t7-6" value="&lt;span style=&quot;font-size: 18px&quot;&gt;Get&lt;br&gt;Move Options&lt;br&gt;&lt;/span&gt;" style="rounded=1;whiteSpace=wrap;html=1;fillColor=#FFFFFF;" parent="nrWOXvKMizASNFN-f3t7-2" vertex="1">
          <mxGeometry x="70" y="50" width="120" height="60" as="geometry" />
        </mxCell>
        <mxCell id="nrWOXvKMizASNFN-f3t7-7" value="&lt;font style=&quot;font-size: 18px&quot;&gt;Move&lt;br&gt;Options&lt;/font&gt;" style="rounded=1;whiteSpace=wrap;html=1;fillColor=#FFFFFF;" parent="nrWOXvKMizASNFN-f3t7-2" vertex="1">
          <mxGeometry x="230" y="50" width="120" height="60" as="geometry" />
        </mxCell>
        <mxCell id="nrWOXvKMizASNFN-f3t7-8" value="" style="endArrow=classic;html=1;exitX=0.5;exitY=0;exitDx=0;exitDy=0;entryX=0;entryY=0.5;entryDx=0;entryDy=0;" parent="nrWOXvKMizASNFN-f3t7-2" source="nrWOXvKMizASNFN-f3t7-43" target="nrWOXvKMizASNFN-f3t7-5" edge="1">
          <mxGeometry width="50" height="50" relative="1" as="geometry">
            <mxPoint x="550" y="70" as="sourcePoint" />
            <mxPoint x="570" y="40" as="targetPoint" />
            <Array as="points">
              <mxPoint x="550" y="40" />
            </Array>
          </mxGeometry>
        </mxCell>
        <mxCell id="nrWOXvKMizASNFN-f3t7-9" value="" style="ellipse;whiteSpace=wrap;html=1;aspect=fixed;fillColor=#000000;" parent="nrWOXvKMizASNFN-f3t7-2" vertex="1">
          <mxGeometry x="610" y="30" width="20" height="20" as="geometry" />
        </mxCell>
        <mxCell id="nrWOXvKMizASNFN-f3t7-33" value="&lt;span style=&quot;font-size: 18px&quot;&gt;Make&lt;br&gt;&lt;/span&gt;&lt;font style=&quot;font-size: 18px&quot;&gt;Move&lt;/font&gt;" style="rounded=1;whiteSpace=wrap;html=1;fillColor=#FFFFFF;" parent="nrWOXvKMizASNFN-f3t7-2" vertex="1">
          <mxGeometry x="370" y="50" width="120" height="60" as="geometry" />
        </mxCell>
        <mxCell id="nrWOXvKMizASNFN-f3t7-43" value="&lt;span style=&quot;font-size: 18px&quot;&gt;Broadcast&lt;br&gt;&lt;/span&gt;&lt;font style=&quot;font-size: 18px&quot;&gt;Move&lt;/font&gt;" style="rounded=1;whiteSpace=wrap;html=1;fillColor=#FFFFFF;" parent="nrWOXvKMizASNFN-f3t7-2" vertex="1">
          <mxGeometry x="510" y="90" width="120" height="60" as="geometry" />
        </mxCell>
        <mxCell id="78ANNg-cUgtkEvwnNWyD-2" value="" style="endArrow=classic;html=1;exitX=1;exitY=0.5;exitDx=0;exitDy=0;entryX=0;entryY=0.5;entryDx=0;entryDy=0;" edge="1" parent="nrWOXvKMizASNFN-f3t7-2" source="nrWOXvKMizASNFN-f3t7-7" target="nrWOXvKMizASNFN-f3t7-33">
          <mxGeometry width="50" height="50" relative="1" as="geometry">
            <mxPoint x="250" y="420" as="sourcePoint" />
            <mxPoint x="300" y="370" as="targetPoint" />
          </mxGeometry>
        </mxCell>
        <mxCell id="nrWOXvKMizASNFN-f3t7-10" value="Network" style="swimlane;html=1;startSize=20;horizontal=0;fillColor=#d5e8d4;strokeColor=#82b366;" parent="nrWOXvKMizASNFN-f3t7-1" vertex="1">
          <mxGeometry x="20" y="160" width="650" height="110" as="geometry" />
        </mxCell>
        <mxCell id="nrWOXvKMizASNFN-f3t7-11" value="&lt;span style=&quot;font-size: 18px&quot;&gt;Player&lt;br&gt;&lt;/span&gt;&lt;font style=&quot;font-size: 18px&quot;&gt;Move Options&lt;br&gt;Request&lt;br&gt;&lt;/font&gt;" style="rounded=1;whiteSpace=wrap;html=1;fillColor=#FFFFFF;" parent="nrWOXvKMizASNFN-f3t7-10" vertex="1">
          <mxGeometry x="70" y="30" width="120" height="60" as="geometry" />
        </mxCell>
        <mxCell id="nrWOXvKMizASNFN-f3t7-12" value="&lt;span style=&quot;font-size: 18px&quot;&gt;Player&lt;br&gt;&lt;/span&gt;&lt;font style=&quot;font-size: 18px&quot;&gt;Move Options&lt;br&gt;Response&lt;br&gt;&lt;/font&gt;" style="rounded=1;whiteSpace=wrap;html=1;fillColor=#FFFFFF;" parent="nrWOXvKMizASNFN-f3t7-10" vertex="1">
          <mxGeometry x="230" y="30" width="120" height="60" as="geometry" />
        </mxCell>
        <mxCell id="nrWOXvKMizASNFN-f3t7-34" value="&lt;span style=&quot;font-size: 18px&quot;&gt;Player&lt;br&gt;&lt;/span&gt;&lt;font style=&quot;font-size: 18px&quot;&gt;Move&lt;br&gt;Request&lt;br&gt;&lt;/font&gt;" style="rounded=1;whiteSpace=wrap;html=1;fillColor=#FFFFFF;" parent="nrWOXvKMizASNFN-f3t7-10" vertex="1">
          <mxGeometry x="370" y="30" width="120" height="60" as="geometry" />
        </mxCell>
        <mxCell id="nrWOXvKMizASNFN-f3t7-42" value="&lt;span style=&quot;font-size: 18px&quot;&gt;Player&lt;br&gt;&lt;/span&gt;&lt;font style=&quot;font-size: 18px&quot;&gt;Move&lt;br&gt;Response&lt;br&gt;&lt;/font&gt;" style="rounded=1;whiteSpace=wrap;html=1;fillColor=#FFFFFF;" parent="nrWOXvKMizASNFN-f3t7-10" vertex="1">
          <mxGeometry x="520" y="30" width="120" height="60" as="geometry" />
        </mxCell>
        <mxCell id="nrWOXvKMizASNFN-f3t7-13" value="" style="endArrow=classic;html=1;exitX=0.5;exitY=1;exitDx=0;exitDy=0;entryX=0.5;entryY=0;entryDx=0;entryDy=0;" parent="nrWOXvKMizASNFN-f3t7-1" source="nrWOXvKMizASNFN-f3t7-11" target="nrWOXvKMizASNFN-f3t7-23" edge="1">
          <mxGeometry width="50" height="50" relative="1" as="geometry">
            <mxPoint x="270" y="300" as="sourcePoint" />
            <mxPoint x="90" y="350" as="targetPoint" />
          </mxGeometry>
        </mxCell>
        <mxCell id="nrWOXvKMizASNFN-f3t7-14" value="" style="endArrow=classic;html=1;exitX=0.5;exitY=1;exitDx=0;exitDy=0;" parent="nrWOXvKMizASNFN-f3t7-1" source="nrWOXvKMizASNFN-f3t7-6" target="nrWOXvKMizASNFN-f3t7-11" edge="1">
          <mxGeometry width="50" height="50" relative="1" as="geometry">
            <mxPoint x="270" y="300" as="sourcePoint" />
            <mxPoint x="320" y="250" as="targetPoint" />
          </mxGeometry>
        </mxCell>
        <mxCell id="nrWOXvKMizASNFN-f3t7-26" value="" style="endArrow=classic;html=1;exitX=0.5;exitY=0;exitDx=0;exitDy=0;entryX=0.5;entryY=1;entryDx=0;entryDy=0;" parent="nrWOXvKMizASNFN-f3t7-1" source="nrWOXvKMizASNFN-f3t7-12" target="nrWOXvKMizASNFN-f3t7-7" edge="1">
          <mxGeometry width="50" height="50" relative="1" as="geometry">
            <mxPoint x="160" y="280" as="sourcePoint" />
            <mxPoint x="380" y="90" as="targetPoint" />
          </mxGeometry>
        </mxCell>
        <mxCell id="nrWOXvKMizASNFN-f3t7-25" value="" style="endArrow=classic;html=1;exitX=0.5;exitY=0;exitDx=0;exitDy=0;entryX=0.5;entryY=1;entryDx=0;entryDy=0;" parent="nrWOXvKMizASNFN-f3t7-1" source="nrWOXvKMizASNFN-f3t7-22" target="nrWOXvKMizASNFN-f3t7-12" edge="1">
          <mxGeometry width="50" height="50" relative="1" as="geometry">
            <mxPoint x="300" y="480" as="sourcePoint" />
            <mxPoint x="380" y="270" as="targetPoint" />
            <Array as="points" />
          </mxGeometry>
        </mxCell>
        <mxCell id="nrWOXvKMizASNFN-f3t7-35" value="" style="endArrow=classic;html=1;exitX=0.5;exitY=1;exitDx=0;exitDy=0;entryX=0.5;entryY=0;entryDx=0;entryDy=0;" parent="nrWOXvKMizASNFN-f3t7-1" source="nrWOXvKMizASNFN-f3t7-34" target="nrWOXvKMizASNFN-f3t7-36" edge="1">
          <mxGeometry width="50" height="50" relative="1" as="geometry">
            <mxPoint x="460" y="330" as="sourcePoint" />
            <mxPoint x="450" y="360" as="targetPoint" />
          </mxGeometry>
        </mxCell>
        <mxCell id="nrWOXvKMizASNFN-f3t7-41" value="" style="endArrow=classic;html=1;exitX=0.5;exitY=0;exitDx=0;exitDy=0;entryX=0.5;entryY=1;entryDx=0;entryDy=0;" parent="nrWOXvKMizASNFN-f3t7-1" source="nrWOXvKMizASNFN-f3t7-39" target="nrWOXvKMizASNFN-f3t7-42" edge="1">
          <mxGeometry width="50" height="50" relative="1" as="geometry">
            <mxPoint x="460" y="280" as="sourcePoint" />
            <mxPoint x="600" y="280" as="targetPoint" />
          </mxGeometry>
        </mxCell>
        <mxCell id="nrWOXvKMizASNFN-f3t7-15" value="Back End" style="swimlane;html=1;startSize=20;horizontal=0;fillColor=#dae8fc;strokeColor=#6c8ebf;" parent="nrWOXvKMizASNFN-f3t7-1" vertex="1">
          <mxGeometry x="20" y="270" width="650" height="510" as="geometry" />
        </mxCell>
        <mxCell id="nrWOXvKMizASNFN-f3t7-18" value="&lt;span style=&quot;font-size: 14px&quot;&gt;&lt;br&gt;&lt;/span&gt;" style="text;html=1;strokeColor=none;fillColor=none;align=center;verticalAlign=middle;whiteSpace=wrap;rounded=0;" parent="nrWOXvKMizASNFN-f3t7-15" vertex="1">
          <mxGeometry x="100" width="110" height="50" as="geometry" />
        </mxCell>
        <mxCell id="nrWOXvKMizASNFN-f3t7-23" value="&lt;span style=&quot;font-size: 18px&quot;&gt;Get Possible&lt;br&gt;&lt;/span&gt;&lt;font style=&quot;font-size: 18px&quot;&gt;Moves&lt;/font&gt;" style="rounded=1;whiteSpace=wrap;html=1;fillColor=#FFFFFF;" parent="nrWOXvKMizASNFN-f3t7-15" vertex="1">
          <mxGeometry x="70" y="20" width="120" height="60" as="geometry" />
        </mxCell>
        <mxCell id="nrWOXvKMizASNFN-f3t7-22" value="&lt;span style=&quot;font-size: 18px&quot;&gt;Notify&lt;br&gt;&lt;/span&gt;&lt;font style=&quot;font-size: 18px&quot;&gt;Network&lt;/font&gt;" style="rounded=1;whiteSpace=wrap;html=1;fillColor=#FFFFFF;" parent="nrWOXvKMizASNFN-f3t7-15" vertex="1">
          <mxGeometry x="230" y="20" width="120" height="60" as="geometry" />
        </mxCell>
        <mxCell id="nrWOXvKMizASNFN-f3t7-31" value="" style="endArrow=classic;html=1;exitX=1;exitY=0.5;exitDx=0;exitDy=0;" parent="nrWOXvKMizASNFN-f3t7-15" source="nrWOXvKMizASNFN-f3t7-23" target="nrWOXvKMizASNFN-f3t7-22" edge="1">
          <mxGeometry width="50" height="50" relative="1" as="geometry">
            <mxPoint x="190" y="50" as="sourcePoint" />
            <mxPoint x="280" y="50" as="targetPoint" />
          </mxGeometry>
        </mxCell>
        <mxCell id="nrWOXvKMizASNFN-f3t7-36" value="&lt;font style=&quot;font-size: 18px&quot;&gt;Move&lt;br&gt;Player&lt;br&gt;&lt;/font&gt;" style="rounded=1;whiteSpace=wrap;html=1;fillColor=#FFFFFF;" parent="nrWOXvKMizASNFN-f3t7-15" vertex="1">
          <mxGeometry x="370" y="20" width="120" height="60" as="geometry" />
        </mxCell>
        <mxCell id="nrWOXvKMizASNFN-f3t7-39" value="&lt;span style=&quot;font-size: 18px&quot;&gt;Notify&lt;br&gt;&lt;/span&gt;&lt;font style=&quot;font-size: 18px&quot;&gt;Network&lt;/font&gt;" style="rounded=1;whiteSpace=wrap;html=1;fillColor=#FFFFFF;" parent="nrWOXvKMizASNFN-f3t7-15" vertex="1">
          <mxGeometry x="520" y="20" width="120" height="60" as="geometry" />
        </mxCell>
        <mxCell id="nrWOXvKMizASNFN-f3t7-40" value="" style="endArrow=classic;html=1;exitX=1;exitY=0.5;exitDx=0;exitDy=0;entryX=0;entryY=0.5;entryDx=0;entryDy=0;" parent="nrWOXvKMizASNFN-f3t7-15" source="nrWOXvKMizASNFN-f3t7-36" target="nrWOXvKMizASNFN-f3t7-39" edge="1">
          <mxGeometry width="50" height="50" relative="1" as="geometry">
            <mxPoint x="440" y="-50" as="sourcePoint" />
            <mxPoint x="440" y="30" as="targetPoint" />
          </mxGeometry>
        </mxCell>
        <mxCell id="nrWOXvKMizASNFN-f3t7-45" value="" style="rhombus;whiteSpace=wrap;html=1;direction=east;" parent="nrWOXvKMizASNFN-f3t7-15" vertex="1">
          <mxGeometry x="95" y="140" width="70" height="40" as="geometry" />
        </mxCell>
        <mxCell id="nrWOXvKMizASNFN-f3t7-48" value="&lt;font style=&quot;font-size: 14px&quot;&gt;[ player in room AND room has no &lt;br&gt;secret room ]&amp;nbsp;&lt;/font&gt;" style="text;html=1;strokeColor=none;fillColor=none;align=center;verticalAlign=middle;whiteSpace=wrap;rounded=0;" parent="nrWOXvKMizASNFN-f3t7-15" vertex="1">
          <mxGeometry x="140" y="120" width="125" height="20" as="geometry" />
        </mxCell>
        <mxCell id="nrWOXvKMizASNFN-f3t7-49" value="&lt;font style=&quot;font-size: 14px&quot;&gt;[ player in room AND room has &lt;br&gt;secret room ]&amp;nbsp;&lt;/font&gt;" style="text;html=1;strokeColor=none;fillColor=none;align=center;verticalAlign=middle;whiteSpace=wrap;rounded=0;" parent="nrWOXvKMizASNFN-f3t7-15" vertex="1">
          <mxGeometry x="10" y="110" width="125" height="20" as="geometry" />
        </mxCell>
        <mxCell id="nrWOXvKMizASNFN-f3t7-50" value="" style="curved=1;endArrow=classic;html=1;exitX=1;exitY=0.5;exitDx=0;exitDy=0;" parent="nrWOXvKMizASNFN-f3t7-15" source="nrWOXvKMizASNFN-f3t7-45" edge="1">
          <mxGeometry width="50" height="50" relative="1" as="geometry">
            <mxPoint x="260" y="260" as="sourcePoint" />
            <mxPoint x="250" y="270" as="targetPoint" />
            <Array as="points">
              <mxPoint x="240" y="160" />
              <mxPoint x="250" y="160" />
              <mxPoint x="250" y="210" />
            </Array>
          </mxGeometry>
        </mxCell>
        <mxCell id="nrWOXvKMizASNFN-f3t7-52" value="" style="curved=1;endArrow=classic;html=1;exitX=0;exitY=0.5;exitDx=0;exitDy=0;" parent="nrWOXvKMizASNFN-f3t7-15" source="nrWOXvKMizASNFN-f3t7-45" edge="1">
          <mxGeometry width="50" height="50" relative="1" as="geometry">
            <mxPoint x="95" y="270" as="sourcePoint" />
            <mxPoint x="70" y="220" as="targetPoint" />
            <Array as="points">
              <mxPoint x="60" y="160" />
              <mxPoint x="50" y="160" />
              <mxPoint x="30" y="160" />
            </Array>
          </mxGeometry>
        </mxCell>
        <mxCell id="nrWOXvKMizASNFN-f3t7-53" value="&lt;span style=&quot;font-size: 18px&quot;&gt;Add&amp;nbsp;&lt;/span&gt;&lt;font style=&quot;font-size: 18px&quot;&gt;Secret&lt;br&gt;Room&lt;/font&gt;" style="rounded=1;whiteSpace=wrap;html=1;fillColor=#FFFFFF;" parent="nrWOXvKMizASNFN-f3t7-15" vertex="1">
          <mxGeometry x="70" y="190" width="160" height="40" as="geometry" />
        </mxCell>
        <mxCell id="nrWOXvKMizASNFN-f3t7-55" value="" style="endArrow=none;html=1;strokeWidth=5;" parent="nrWOXvKMizASNFN-f3t7-15" edge="1">
          <mxGeometry width="50" height="50" relative="1" as="geometry">
            <mxPoint x="54" y="270" as="sourcePoint" />
            <mxPoint x="274" y="270" as="targetPoint" />
          </mxGeometry>
        </mxCell>
        <mxCell id="nrWOXvKMizASNFN-f3t7-57" value="" style="rhombus;whiteSpace=wrap;html=1;direction=east;" parent="nrWOXvKMizASNFN-f3t7-15" vertex="1">
          <mxGeometry x="95" y="310" width="70" height="40" as="geometry" />
        </mxCell>
        <mxCell id="nrWOXvKMizASNFN-f3t7-58" value="&lt;font style=&quot;font-size: 14px&quot;&gt;[ hallway is&lt;br&gt;occupied OR&lt;br&gt;player currently in&lt;br&gt;hallway ]&amp;nbsp;&lt;/font&gt;" style="text;html=1;strokeColor=none;fillColor=none;align=center;verticalAlign=middle;whiteSpace=wrap;rounded=0;" parent="nrWOXvKMizASNFN-f3t7-15" vertex="1">
          <mxGeometry x="130" y="290" width="190" height="50" as="geometry" />
        </mxCell>
        <mxCell id="nrWOXvKMizASNFN-f3t7-61" value="&lt;span style=&quot;font-size: 18px&quot;&gt;Add H&lt;/span&gt;&lt;span style=&quot;font-size: 18px&quot;&gt;allway&lt;/span&gt;" style="rounded=1;whiteSpace=wrap;html=1;fillColor=#FFFFFF;" parent="nrWOXvKMizASNFN-f3t7-15" vertex="1">
          <mxGeometry x="65" y="375" width="155" height="25" as="geometry" />
        </mxCell>
        <mxCell id="nrWOXvKMizASNFN-f3t7-62" value="" style="endArrow=none;html=1;strokeWidth=5;" parent="nrWOXvKMizASNFN-f3t7-15" edge="1">
          <mxGeometry width="50" height="50" relative="1" as="geometry">
            <mxPoint x="54" y="430" as="sourcePoint" />
            <mxPoint x="274" y="430" as="targetPoint" />
            <Array as="points">
              <mxPoint x="169" y="430" />
            </Array>
          </mxGeometry>
        </mxCell>
        <mxCell id="nrWOXvKMizASNFN-f3t7-63" value="" style="endArrow=classic;html=1;exitX=0.5;exitY=1;exitDx=0;exitDy=0;" parent="nrWOXvKMizASNFN-f3t7-15" source="nrWOXvKMizASNFN-f3t7-61" edge="1">
          <mxGeometry width="50" height="50" relative="1" as="geometry">
            <mxPoint x="135" y="135" as="sourcePoint" />
            <mxPoint x="143" y="430" as="targetPoint" />
          </mxGeometry>
        </mxCell>
        <mxCell id="nrWOXvKMizASNFN-f3t7-67" value="" style="endArrow=classic;html=1;exitX=0;exitY=0.5;exitDx=0;exitDy=0;entryX=0.25;entryY=0;entryDx=0;entryDy=0;" parent="nrWOXvKMizASNFN-f3t7-15" source="nrWOXvKMizASNFN-f3t7-57" target="nrWOXvKMizASNFN-f3t7-61" edge="1">
          <mxGeometry width="50" height="50" relative="1" as="geometry">
            <mxPoint x="250" y="190" as="sourcePoint" />
            <mxPoint x="40" y="330" as="targetPoint" />
            <Array as="points">
              <mxPoint x="70" y="340" />
            </Array>
          </mxGeometry>
        </mxCell>
        <mxCell id="nrWOXvKMizASNFN-f3t7-70" value="" style="rhombus;whiteSpace=wrap;html=1;direction=east;" parent="nrWOXvKMizASNFN-f3t7-15" vertex="1">
          <mxGeometry x="350" y="460" width="70" height="40" as="geometry" />
        </mxCell>
        <mxCell id="nrWOXvKMizASNFN-f3t7-71" value="&lt;font style=&quot;font-size: 14px&quot;&gt;[ hallway not&lt;br&gt;occupied ]&amp;nbsp;&lt;/font&gt;" style="text;html=1;strokeColor=none;fillColor=none;align=center;verticalAlign=middle;whiteSpace=wrap;rounded=0;" parent="nrWOXvKMizASNFN-f3t7-15" vertex="1">
          <mxGeometry x="10" y="300" width="125" height="20" as="geometry" />
        </mxCell>
        <mxCell id="nrWOXvKMizASNFN-f3t7-74" value="&lt;span style=&quot;font-size: 18px&quot;&gt;Add&amp;nbsp;&amp;nbsp;&lt;/span&gt;&lt;font style=&quot;font-size: 18px&quot;&gt;Room&lt;/font&gt;" style="rounded=1;whiteSpace=wrap;html=1;fillColor=#FFFFFF;" parent="nrWOXvKMizASNFN-f3t7-15" vertex="1">
          <mxGeometry x="305" y="340" width="160" height="30" as="geometry" />
        </mxCell>
        <mxCell id="nrWOXvKMizASNFN-f3t7-77" value="&lt;font style=&quot;font-size: 14px&quot;&gt;[ is player&lt;br&gt;currently in&amp;nbsp;&lt;br&gt;a room&amp;nbsp; ]&amp;nbsp;&lt;/font&gt;" style="text;html=1;strokeColor=none;fillColor=none;align=center;verticalAlign=middle;whiteSpace=wrap;rounded=0;" parent="nrWOXvKMizASNFN-f3t7-15" vertex="1">
          <mxGeometry x="480" y="400" width="125" height="20" as="geometry" />
        </mxCell>
        <mxCell id="nrWOXvKMizASNFN-f3t7-78" value="&lt;font style=&quot;font-size: 14px&quot;&gt;[ is player&lt;br&gt;currently in&amp;nbsp;&lt;br&gt;a hallway ]&amp;nbsp;&lt;/font&gt;" style="text;html=1;strokeColor=none;fillColor=none;align=center;verticalAlign=middle;whiteSpace=wrap;rounded=0;" parent="nrWOXvKMizASNFN-f3t7-15" vertex="1">
          <mxGeometry x="280" y="400" width="125" height="20" as="geometry" />
        </mxCell>
        <mxCell id="nrWOXvKMizASNFN-f3t7-79" value="" style="endArrow=none;html=1;strokeWidth=5;" parent="nrWOXvKMizASNFN-f3t7-15" edge="1">
          <mxGeometry width="50" height="50" relative="1" as="geometry">
            <mxPoint x="280" y="270" as="sourcePoint" />
            <mxPoint x="500" y="270" as="targetPoint" />
          </mxGeometry>
        </mxCell>
        <mxCell id="78ANNg-cUgtkEvwnNWyD-1" value="" style="endArrow=classic;html=1;exitX=0.5;exitY=0;exitDx=0;exitDy=0;entryX=0.5;entryY=1;entryDx=0;entryDy=0;" edge="1" parent="nrWOXvKMizASNFN-f3t7-1" source="nrWOXvKMizASNFN-f3t7-42" target="nrWOXvKMizASNFN-f3t7-43">
          <mxGeometry width="50" height="50" relative="1" as="geometry">
            <mxPoint x="610" y="300" as="sourcePoint" />
            <mxPoint x="610" y="260" as="targetPoint" />
          </mxGeometry>
        </mxCell>
        <mxCell id="nrWOXvKMizASNFN-f3t7-32" value="" style="endArrow=classic;html=1;exitX=0.5;exitY=1;exitDx=0;exitDy=0;entryX=0.5;entryY=0;entryDx=0;entryDy=0;" parent="nrWOXvKMizASNFN-f3t7-1" source="nrWOXvKMizASNFN-f3t7-33" edge="1" target="nrWOXvKMizASNFN-f3t7-34">
          <mxGeometry width="50" height="50" relative="1" as="geometry">
            <mxPoint x="520" y="285" as="sourcePoint" />
            <mxPoint x="450" y="150" as="targetPoint" />
          </mxGeometry>
        </mxCell>
        <mxCell id="nrWOXvKMizASNFN-f3t7-44" value="" style="endArrow=classic;html=1;exitX=0.5;exitY=1;exitDx=0;exitDy=0;" parent="1" source="nrWOXvKMizASNFN-f3t7-23" edge="1">
          <mxGeometry width="50" height="50" relative="1" as="geometry">
            <mxPoint x="390" y="460" as="sourcePoint" />
            <mxPoint x="270" y="530" as="targetPoint" />
          </mxGeometry>
        </mxCell>
        <mxCell id="nrWOXvKMizASNFN-f3t7-56" value="" style="endArrow=classic;html=1;exitX=0.5;exitY=1;exitDx=0;exitDy=0;" parent="1" source="nrWOXvKMizASNFN-f3t7-53" edge="1">
          <mxGeometry width="50" height="50" relative="1" as="geometry">
            <mxPoint x="280" y="400" as="sourcePoint" />
            <mxPoint x="290" y="660" as="targetPoint" />
          </mxGeometry>
        </mxCell>
        <mxCell id="nrWOXvKMizASNFN-f3t7-64" value="" style="endArrow=classic;html=1;" parent="1" edge="1">
          <mxGeometry width="50" height="50" relative="1" as="geometry">
            <mxPoint x="270" y="670" as="sourcePoint" />
            <mxPoint x="270" y="700" as="targetPoint" />
            <Array as="points">
              <mxPoint x="270" y="660" />
              <mxPoint x="270" y="670" />
            </Array>
          </mxGeometry>
        </mxCell>
        <mxCell id="nrWOXvKMizASNFN-f3t7-68" value="" style="endArrow=classic;html=1;exitX=1;exitY=0.5;exitDx=0;exitDy=0;" parent="1" source="nrWOXvKMizASNFN-f3t7-57" edge="1">
          <mxGeometry width="50" height="50" relative="1" as="geometry">
            <mxPoint x="245" y="730" as="sourcePoint" />
            <mxPoint x="400" y="820" as="targetPoint" />
            <Array as="points">
              <mxPoint x="320" y="740" />
              <mxPoint x="350" y="740" />
              <mxPoint x="400" y="740" />
            </Array>
          </mxGeometry>
        </mxCell>
        <mxCell id="nrWOXvKMizASNFN-f3t7-69" value="" style="endArrow=classic;html=1;" parent="1" edge="1">
          <mxGeometry width="50" height="50" relative="1" as="geometry">
            <mxPoint x="350" y="820" as="sourcePoint" />
            <mxPoint x="490" y="870" as="targetPoint" />
            <Array as="points">
              <mxPoint x="350" y="870" />
            </Array>
          </mxGeometry>
        </mxCell>
        <mxCell id="nrWOXvKMizASNFN-f3t7-73" value="" style="endArrow=classic;html=1;exitX=0.5;exitY=0;exitDx=0;exitDy=0;" parent="1" source="nrWOXvKMizASNFN-f3t7-70" edge="1">
          <mxGeometry width="50" height="50" relative="1" as="geometry">
            <mxPoint x="390" y="550" as="sourcePoint" />
            <mxPoint x="525" y="760" as="targetPoint" />
          </mxGeometry>
        </mxCell>
        <mxCell id="nrWOXvKMizASNFN-f3t7-75" value="" style="endArrow=classic;html=1;exitX=1;exitY=0.5;exitDx=0;exitDy=0;" parent="1" source="nrWOXvKMizASNFN-f3t7-70" edge="1">
          <mxGeometry width="50" height="50" relative="1" as="geometry">
            <mxPoint x="390" y="560" as="sourcePoint" />
            <mxPoint x="630" y="660" as="targetPoint" />
            <Array as="points">
              <mxPoint x="650" y="870" />
            </Array>
          </mxGeometry>
        </mxCell>
        <mxCell id="nrWOXvKMizASNFN-f3t7-80" value="" style="endArrow=classic;html=1;exitX=0.463;exitY=0;exitDx=0;exitDy=0;exitPerimeter=0;" parent="1" source="nrWOXvKMizASNFN-f3t7-74" edge="1">
          <mxGeometry width="50" height="50" relative="1" as="geometry">
            <mxPoint x="535" y="860" as="sourcePoint" />
            <mxPoint x="520" y="660" as="targetPoint" />
          </mxGeometry>
        </mxCell>
        <mxCell id="nrWOXvKMizASNFN-f3t7-81" value="" style="endArrow=classic;html=1;entryX=0.5;entryY=1;entryDx=0;entryDy=0;" parent="1" target="nrWOXvKMizASNFN-f3t7-22" edge="1">
          <mxGeometry width="50" height="50" relative="1" as="geometry">
            <mxPoint x="490" y="660" as="sourcePoint" />
            <mxPoint x="440" y="490" as="targetPoint" />
          </mxGeometry>
        </mxCell>
      </root>
    </mxGraphModel>
  </diagram>
</mxfile>
